<svg width="75" height="95" viewBox="0 0 75 95" fill="none" xmlns="http://www.w3.org/2000/svg">
<g clip-path="url(#clip0_104_2)">
<path fill-rule="evenodd" clip-rule="evenodd" d="M6.00609 10.7124C4.34756 10.7124 3.00305 12.0569 3.00305 13.7154V87.2898C3.00305 88.9484 4.34756 90.2931 6.00609 90.2931H69.0704C70.7283 90.2931 72.073 88.9484 72.073 87.2898V13.7154C72.073 12.0569 70.7283 10.7124 69.0704 10.7124H58.4393V7.70935H69.0704C72.3869 7.70935 75.0763 10.3984 75.0763 13.7154V87.2898C75.0763 90.607 72.3869 93.2964 69.0704 93.2964H6.00609C2.68902 93.2964 0 90.607 0 87.2898V13.7154C0 10.3984 2.68902 7.70935 6.00609 7.70935H17.3576V10.7124H6.00609Z" fill="#636363"/>
<path fill-rule="evenodd" clip-rule="evenodd" d="M7.50763 18.22C7.50763 16.5615 8.85212 15.217 10.5107 15.217H17.8395V18.22H10.5107V82.7858H64.5655V18.22H57.2366V15.217H64.5655C66.2241 15.217 67.5684 16.5615 67.5684 18.22V82.7858C67.5684 84.4438 66.2241 85.7885 64.5655 85.7885H10.5107C8.85212 85.7885 7.50763 84.4438 7.50763 82.7858V18.22Z" fill="#636363"/>
<path d="M34.4862 41.2171C35.0067 42.4143 35.267 43.7937 35.267 45.3553C35.267 46.7607 35.0328 48.0621 34.5643 49.2593C33.9396 50.9249 32.8856 52.2263 31.4021 53.1632C29.9446 54.1002 28.2138 54.5686 26.2098 54.5686C24.2318 54.5686 22.488 54.0741 20.9785 53.0851C19.495 52.0961 18.4279 50.7558 17.7773 49.0641C17.4129 48.0491 17.2047 46.9559 17.1526 45.7847C17.1526 45.4724 17.3088 45.3163 17.6211 45.3163H22.2278C22.5401 45.3163 22.6962 45.4724 22.6962 45.7847C22.8004 46.6436 22.9435 47.2813 23.1257 47.6977C23.3599 48.3743 23.7373 48.9079 24.2578 49.2983C24.8044 49.6627 25.442 49.8449 26.1708 49.8449C27.6282 49.8449 28.6302 49.2072 29.1768 47.9319C29.5412 47.1511 29.7234 46.2402 29.7234 45.1991C29.7234 43.9759 29.5282 42.9739 29.1378 42.1931C28.5392 40.9698 27.5372 40.3582 26.1317 40.3582C25.8454 40.3582 25.5462 40.4493 25.2338 40.6315C24.9215 40.7877 24.5441 41.0219 24.1016 41.3342C23.9976 41.4123 23.8934 41.4513 23.7894 41.4513C23.6332 41.4513 23.5161 41.3733 23.438 41.2171L21.1347 37.9768C21.0826 37.8987 21.0566 37.8076 21.0566 37.7035C21.0566 37.5474 21.1086 37.4172 21.2127 37.3131L27.42 31.8866C27.4721 31.8346 27.4851 31.7826 27.459 31.7304C27.459 31.6784 27.42 31.6524 27.342 31.6524H18.1677C18.0375 31.6524 17.9204 31.6134 17.8163 31.5352C17.7382 31.4312 17.6992 31.314 17.6992 31.1839V27.397C17.6992 27.267 17.7382 27.1628 17.8163 27.0848C17.9204 26.9806 18.0375 26.9286 18.1677 26.9286H34.4472C34.5773 26.9286 34.6814 26.9806 34.7595 27.0848C34.8636 27.1628 34.9156 27.267 34.9156 27.397V31.6914C34.9156 31.8996 34.8246 32.0948 34.6424 32.277L29.5282 36.9618C29.4761 37.0138 29.4501 37.0659 29.4501 37.118C29.4761 37.17 29.5412 37.196 29.6453 37.196C31.9096 37.6385 33.5232 38.9788 34.4862 41.2171Z" fill="#636363"/>
<path d="M48.0345 54.6858C45.1716 54.6858 42.9072 53.892 41.2416 52.3044C39.5758 50.6907 38.743 48.5045 38.743 45.7457V35.4393C38.743 32.7325 39.5758 30.5854 41.2416 28.9977C42.9072 27.4101 45.1716 26.6163 48.0345 26.6163C50.8973 26.6163 53.1617 27.4101 54.8273 28.9977C56.5191 30.5854 57.3649 32.7325 57.3649 35.4393V45.7457C57.3649 48.5045 56.5191 50.6907 54.8273 52.3044C53.1617 53.892 50.8973 54.6858 48.0345 54.6858ZM48.0345 49.962C49.2056 49.962 50.1296 49.6106 50.8063 48.9079C51.509 48.1792 51.8603 47.2162 51.8603 46.019V35.2831C51.8603 34.0859 51.509 33.1359 50.8063 32.4332C50.1296 31.7045 49.2056 31.3401 48.0345 31.3401C46.8893 31.3401 45.9654 31.7045 45.2626 32.4332C44.586 33.1359 44.2476 34.0859 44.2476 35.2831V46.019C44.2476 47.2162 44.586 48.1792 45.2626 48.9079C45.9654 49.6106 46.8893 49.962 48.0345 49.962Z" fill="#636363"/>
<path d="M17.7207 75.2779C17.6606 75.2779 17.6066 75.2593 17.5585 75.2234C17.5225 75.1757 17.5045 75.1212 17.5045 75.0615V62.881C17.5045 62.821 17.5225 62.7729 17.5585 62.7369C17.6066 62.6888 17.6606 62.6648 17.7207 62.6648H22.2253C23.1262 62.6648 23.913 62.827 24.5857 63.1513C25.2703 63.4636 25.7989 63.9081 26.1713 64.4846C26.5436 65.0613 26.7299 65.7279 26.7299 66.4847V71.4575C26.7299 72.2148 26.5436 72.8812 26.1713 73.458C25.7989 74.0341 25.2703 74.4847 24.5857 74.8093C23.913 75.1212 23.1262 75.2779 22.2253 75.2779H17.7207ZM20.045 73.0073C20.045 73.0677 20.0751 73.0976 20.1352 73.0976H22.3153C22.8679 73.0976 23.3124 72.9111 23.6487 72.5387C23.9971 72.1664 24.1773 71.6679 24.1893 71.0434V66.8991C24.1893 66.2745 24.0151 65.776 23.6667 65.4036C23.3304 65.0312 22.8739 64.845 22.2974 64.845H20.1352C20.0751 64.845 20.045 64.875 20.045 64.9351V73.0073Z" fill="#636363"/>
<path d="M35.9747 75.2779C35.8545 75.2779 35.7764 75.2175 35.7404 75.0973L35.1998 73.3319C35.1758 73.2834 35.1458 73.2595 35.1098 73.2595H30.6773C30.6412 73.2595 30.6112 73.2834 30.5872 73.3319L30.0647 75.0973C30.0286 75.2175 29.9505 75.2779 29.8304 75.2779H27.5421C27.47 75.2779 27.416 75.2593 27.3799 75.2234C27.3439 75.1757 27.3379 75.1093 27.3619 75.0257L31.2538 62.845C31.2899 62.7249 31.3679 62.6648 31.4881 62.6648H34.317C34.4371 62.6648 34.5152 62.7249 34.5512 62.845L38.4432 75.0257C38.4552 75.0496 38.4611 75.0794 38.4611 75.1153C38.4611 75.2234 38.3951 75.2779 38.263 75.2779H35.9747ZM31.2359 71.1874C31.2238 71.2597 31.2479 71.2956 31.3079 71.2956H34.4791C34.5512 71.2956 34.5752 71.2597 34.5512 71.1874L32.9295 65.836C32.9175 65.788 32.8995 65.77 32.8755 65.782C32.8515 65.782 32.8334 65.8 32.8214 65.836L31.2359 71.1874Z" fill="#636363"/>
<path d="M41.8667 75.2593C41.8067 75.2593 41.7526 75.2414 41.7046 75.2055C41.6686 75.1577 41.6506 75.1033 41.6506 75.0436V70.4845C41.6506 70.4367 41.6445 70.4009 41.6325 70.3763L37.9207 62.9171C37.8967 62.869 37.8847 62.833 37.8847 62.809C37.8847 62.7128 37.9508 62.6648 38.0829 62.6648H40.3532C40.4733 62.6648 40.5574 62.7189 40.6055 62.827L42.8577 67.6198C42.8938 67.6919 42.9298 67.6919 42.9659 67.6198L45.2182 62.827C45.2662 62.7189 45.3503 62.6648 45.4704 62.6648H47.7767C47.8608 62.6648 47.9149 62.6888 47.9389 62.7369C47.9749 62.7729 47.9749 62.833 47.9389 62.9171L44.1911 70.3763C44.1791 70.4009 44.1731 70.4367 44.1731 70.4845V75.0436C44.1731 75.1033 44.1491 75.1577 44.101 75.2055C44.065 75.2414 44.0169 75.2593 43.9569 75.2593H41.8667Z" fill="#636363"/>
<path d="M53.3784 75.4219C52.4175 75.4219 51.5766 75.2719 50.8559 74.9713C50.1352 74.6593 49.5766 74.2206 49.1802 73.6558C48.7958 73.0797 48.6036 72.4127 48.6036 71.656V71.2598C48.6036 71.1994 48.6216 71.1516 48.6577 71.1158C48.7057 71.0673 48.7597 71.0434 48.8198 71.0434H50.8739C50.934 71.0434 50.982 71.0673 51.018 71.1158C51.0661 71.1516 51.0901 71.1994 51.0901 71.2598V71.5299C51.0901 72.0104 51.3123 72.4186 51.7568 72.7551C52.2013 73.0797 52.8019 73.2416 53.5586 73.2416C54.1953 73.2416 54.6697 73.1096 54.9821 72.8454C55.2944 72.5686 55.4505 72.2328 55.4505 71.8359C55.4505 71.5478 55.3544 71.3076 55.1622 71.1158C54.9701 70.9113 54.7058 70.7368 54.3694 70.5927C54.0451 70.4368 53.5226 70.2264 52.8019 69.9622C51.997 69.6861 51.3123 69.404 50.7478 69.1153C50.1952 68.8273 49.7267 68.437 49.3424 67.9442C48.9699 67.4397 48.7838 66.8211 48.7838 66.0884C48.7838 65.3676 48.9699 64.737 49.3424 64.1964C49.7147 63.6559 50.2313 63.2415 50.8919 62.9532C51.5526 62.6648 52.3153 62.5208 53.1802 62.5208C54.0932 62.5208 54.904 62.6829 55.6127 63.0072C56.3334 63.3315 56.892 63.788 57.2884 64.3766C57.6968 64.9532 57.9011 65.6259 57.9011 66.3947V66.6649C57.9011 66.725 57.877 66.779 57.829 66.8271C57.7929 66.8631 57.7449 66.8812 57.6848 66.8812H55.6127C55.5526 66.8812 55.4986 66.8631 55.4505 66.8271C55.4145 66.779 55.3965 66.725 55.3965 66.6649V66.5208C55.3965 66.0163 55.1863 65.5898 54.7659 65.2415C54.3574 64.8811 53.7928 64.7009 53.0721 64.7009C52.5076 64.7009 52.0631 64.8211 51.7388 65.0613C51.4265 65.3015 51.2703 65.6319 51.2703 66.0523C51.2703 66.3526 51.3604 66.6049 51.5406 66.8091C51.7328 67.0133 52.009 67.1995 52.3694 67.3676C52.7418 67.5238 53.3124 67.74 54.0812 68.0163C54.934 68.3288 55.6007 68.6049 56.0812 68.8452C56.5737 69.0854 57.0121 69.4458 57.3965 69.9264C57.7929 70.395 57.9911 71.0076 57.9911 71.7642C57.9911 72.8932 57.5767 73.7879 56.7478 74.4489C55.919 75.0974 54.7959 75.4219 53.3784 75.4219Z" fill="#636363"/>
<path fill-rule="evenodd" clip-rule="evenodd" d="M21.0213 18.2202V6.20806C21.0213 5.37879 20.3491 4.70654 19.5198 4.70654C18.6905 4.70654 18.0182 5.37879 18.0182 6.20806V18.2202C18.0182 19.0495 18.6905 19.7217 19.5198 19.7217C20.3491 19.7217 21.0213 19.0495 21.0213 18.2202ZM19.5198 1.70349C17.032 1.70349 15.0153 3.72025 15.0153 6.20806V18.2202C15.0153 20.708 17.032 22.7248 19.5198 22.7248C22.0076 22.7248 24.0244 20.708 24.0244 18.2202V6.20806C24.0244 3.72025 22.0076 1.70349 19.5198 1.70349Z" fill="#636363"/>
<path fill-rule="evenodd" clip-rule="evenodd" d="M57.0579 18.2202V6.20806C57.0579 5.37879 56.3856 4.70654 55.5563 4.70654C54.7271 4.70654 54.0548 5.37879 54.0548 6.20806V18.2202C54.0548 19.0495 54.7271 19.7217 55.5563 19.7217C56.3856 19.7217 57.0579 19.0495 57.0579 18.2202ZM55.5563 1.70349C53.0685 1.70349 51.0518 3.72025 51.0518 6.20806V18.2202C51.0518 20.708 53.0685 22.7248 55.5563 22.7248C58.0441 22.7248 60.0609 20.708 60.0609 18.2202V6.20806C60.0609 3.72025 58.0441 1.70349 55.5563 1.70349Z" fill="#636363"/>
<path fill-rule="evenodd" clip-rule="evenodd" d="M52.5533 10.7124H22.5228V7.70935H52.5533V10.7124Z" fill="#636363"/>
<path fill-rule="evenodd" clip-rule="evenodd" d="M52.5533 18.22H22.5228V15.217H52.5533V18.22Z" fill="#636363"/>
</g>
<defs>
<clipPath id="clip0_104_2">
<rect width="75" height="95" fill="white"/>
</clipPath>
</defs>
</svg>
